<svg xmlns="http://www.w3.org/2000/svg" version="1.1" xmlns:xlink="http://www.w3.org/1999/xlink" xmlns:svgjs="http://svgjs.dev/svgjs" width="1920" height="1080" preserveAspectRatio="none" viewBox="0 0 1920 1080">
    <g mask="url(&quot;#SvgjsMask1075&quot;)" fill="none">
        <path d="M1952 1080L0 1080 L0 841.48Q58.81 740.29, 160 799.09Q219.08 698.17, 320 757.25Q374.31 715.56, 416 769.87Q523.57 717.44, 576 825.02Q633.15 786.17, 672 843.32Q703.91 779.23, 768 811.14Q854.24 737.38, 928 823.62Q1003 802.62, 1024 877.61Q1082.51 776.13, 1184 834.64Q1195.86 750.5, 1280 762.36Q1313.8 700.16, 1376 733.96Q1500.63 698.6, 1536 823.23Q1595.36 786.59, 1632 845.94Q1671.93 725.88, 1792 765.81Q1880.12 693.92, 1952 782.04z" fill="rgba(7, 105, 95, 1)"></path>
        <path d="M2016 1080L0 1080 L0 889.68Q47.17 840.85, 96 888.02Q155.93 851.95, 192 911.89Q249.94 809.83, 352 867.77Q431.54 851.31, 448 930.84Q487.6 810.44, 608 850.05Q661.84 807.88, 704 861.72Q830.31 828.03, 864 954.33Q921 915.33, 960 972.32Q1021.67 874, 1120 935.67Q1192.45 912.13, 1216 984.58Q1256.87 865.45, 1376 906.32Q1476.48 846.81, 1536 947.29Q1628.15 879.44, 1696 971.59Q1741.53 857.13, 1856 902.66Q1909.69 796.36, 2016 850.05z" fill="rgba(16, 147, 132, 1)"></path>
        <path d="M2016 1080L0 1080 L0 975.89Q78.21 958.1, 96 1036.3Q107.64 951.94, 192 963.59Q287.86 899.45, 352 995.31Q490.9 974.21, 512 1113.11Q566.69 1071.8, 608 1126.5Q608.49 1030.99, 704 1031.47Q718.19 949.66, 800 963.86Q886.6 890.46, 960 977.06Q1046.8 967.86, 1056 1054.65Q1088.3 926.95, 1216 959.24Q1268.16 915.4, 1312 967.56Q1454.37 949.93, 1472 1092.3Q1496.39 1020.69, 1568 1045.08Q1595.51 976.59, 1664 1004.1Q1694.46 938.56, 1760 969.01Q1870.88 919.89, 1920 1030.78Q1942.96 957.75, 2016 980.71z" fill="rgba(0, 168, 150, 1)"></path>
    </g>
    <defs>
        <mask id="SvgjsMask1075">
            <rect width="1920" height="1080" fill="#ffffff"></rect>
        </mask>
    </defs>
</svg>